<mxfile host="app.diagrams.net" modified="2024-05-03T01:36:15.671Z" agent="Mozilla/5.0 (Windows NT 10.0; Win64; x64; rv:125.0) Gecko/20100101 Firefox/125.0" version="24.2.5" etag="asEnLIl-a8hUoLt-Zzf2" type="github">
  <diagram name="PÃ¡gina-1" id="-tog2mzo6VybRiNcVLPa">
    <mxGraphModel>
      <root>
        <mxCell id="0" />
        <mxCell id="1" parent="0" />
      </root>
    </mxGraphModel>
  </diagram>
</mxfile>
